<svg width="97" height="97" viewBox="0 0 97 97" fill="none" xmlns="http://www.w3.org/2000/svg">
<g clip-path="url(#clip0_80_149)">
<path d="M17.5812 55.1691C16.975 55.1691 16.2172 54.7144 16.0656 53.9566L14.0953 46.0753C13.9437 45.3175 14.3984 44.4081 15.1562 44.2566C15.9141 44.105 16.8234 44.5597 16.975 45.3175L18.9453 53.1988C19.0969 53.9566 18.6422 54.866 17.8844 55.0175C17.8844 55.1691 17.7328 55.1691 17.5812 55.1691Z" fill="#00A3FF"/>
<path d="M13.4891 55.1687H6.66875C4.39532 55.1687 2.425 54.1078 1.06094 52.289C-0.15156 50.6219 -0.303122 48.6515 0.303128 46.6812C1.66719 43.1953 5.60782 41.6797 12.2766 42.1344C14.2469 42.2859 16.0656 43.3469 16.8234 45.014C17.7328 46.5297 17.2781 47.7422 16.975 48.3484C16.0656 50.0156 13.7922 50.7734 9.7 50.925C8.94219 50.925 8.18438 50.3187 8.18438 49.4094C8.18438 48.5 8.79063 47.8937 9.7 47.8937C13.6406 47.7422 14.2469 46.9844 14.3984 46.8328C14.3984 46.8328 14.3984 46.6812 14.2469 46.3781C13.7922 45.6203 13.0344 45.1656 12.125 45.1656C8.63906 44.8625 4.24375 45.1656 3.33438 47.7422C2.87969 48.9547 3.33438 50.0156 3.78907 50.4703C4.54688 51.3797 5.60781 51.9859 6.82031 51.9859H13.6406C14.55 51.9859 15.1563 52.7437 15.1563 53.5015C15.1563 54.2594 14.3984 55.1687 13.4891 55.1687Z" fill="#00A3FF"/>
<path d="M79.4188 55.1688C79.2672 55.1688 79.1156 55.1688 78.9641 55.1688C78.2063 55.0172 77.6 54.1078 77.9031 53.35L79.8735 45.4688C80.025 44.711 80.9344 44.1047 81.6922 44.4078C82.45 44.5594 83.0563 45.4688 82.7531 46.2266L80.7828 54.1078C80.7828 54.7141 80.025 55.1688 79.4188 55.1688Z" fill="#00A3FF"/>
<path d="M90.3312 55.169H83.5109C82.6016 55.169 81.9953 54.4112 81.9953 53.6534C81.9953 52.8956 82.7531 52.1378 83.5109 52.1378H90.3312C91.5437 52.1378 92.7562 51.5315 93.3625 50.6222C93.6656 50.1675 94.2719 49.1065 93.8172 47.894C92.9078 45.3175 88.5125 45.0143 85.0266 45.3175C84.1172 45.3175 83.2078 45.9237 82.9047 46.53C82.7531 46.8331 82.7531 46.9847 82.7531 46.9847C82.7531 46.9847 83.3594 47.894 87.6031 48.0456C88.5125 48.0456 89.1187 48.8034 89.1187 49.5612C89.1187 50.4706 88.3609 51.0768 87.6031 51.0768C83.5109 50.9253 81.2375 50.1675 80.3281 48.5003C80.025 47.894 79.5703 46.6815 80.4797 45.1659C81.3891 43.4987 83.0562 42.4378 85.0266 42.2862C91.6953 41.8315 95.6359 43.3472 97 46.8331C97.7578 48.6518 97.4547 50.7737 96.2422 52.4409C94.575 54.1081 92.6047 55.169 90.3312 55.169Z" fill="#00A3FF"/>
<path d="M7.57813 66.6877C6.97188 66.6877 6.36563 66.3846 6.21407 65.7783L0.909379 51.9861C0.606254 51.2283 0.909379 50.4705 1.66719 50.0158C2.425 49.7127 3.18282 49.8642 3.6375 50.4705C4.24375 51.5314 5.45625 52.1377 6.66875 52.1377H90.3312C91.5437 52.1377 92.7562 51.5314 93.3625 50.4705C93.8172 49.8642 94.575 49.5611 95.3328 50.0158C96.0906 50.3189 96.3938 51.2283 96.0906 51.9861L90.7859 65.7783C90.4828 66.5361 89.5734 66.9908 88.8156 66.6877C88.0578 66.3845 87.6031 65.4752 87.9062 64.7174L91.5438 55.1689C91.0891 55.3205 90.6344 55.3205 90.1797 55.3205H6.66875C6.21407 55.3205 5.75938 55.3205 5.30469 55.1689L8.94219 64.7174C9.24532 65.4752 8.79063 66.3845 8.03282 66.6877C8.03282 66.6877 7.72969 66.6877 7.57813 66.6877Z" fill="#00A3FF"/>
<path d="M73.9625 95.636H23.0375C19.8547 95.636 16.975 93.6657 15.7625 90.6344L15.6109 90.0282C15.3078 89.2703 15.7625 88.361 16.5203 88.0578C17.2781 87.7547 18.1875 88.2094 18.4906 88.9672L18.6422 89.5735C19.2484 91.3922 21.0672 92.6047 23.0375 92.6047H73.9625C75.9328 92.6047 77.6 91.3922 78.3578 89.5735L78.5094 89.1188C78.8125 88.361 79.7219 87.9063 80.4797 88.2094C81.2375 88.5125 81.6922 89.4219 81.3891 90.1797L81.2375 90.786C80.1766 93.6657 77.1453 95.636 73.9625 95.636Z" fill="#00A3FF"/>
<path d="M16.975 86.5426C9.85157 86.5426 5.15313 81.541 4.24375 73.0535C4.09219 71.841 4.54688 70.6285 5.30469 69.7191C6.36563 68.5066 8.03282 67.9004 9.7 68.3551C10.4578 68.5066 11.3672 68.5066 12.2766 68.3551C13.1859 68.2035 14.0953 68.052 15.0047 67.7488C16.5203 67.4457 18.0359 67.1426 19.5516 67.1426C22.5828 67.1426 24.5531 68.8098 25.3109 72.1441C26.3719 76.9941 25.7656 81.2379 23.7953 83.8145C22.2797 85.4816 20.0063 86.5426 16.975 86.5426ZM8.94219 71.2348C8.4875 71.2348 8.03282 71.3863 7.72969 71.841C7.57813 71.841 7.275 72.2957 7.42657 72.7504C7.88125 76.8426 9.54844 83.5113 17.1266 83.5113V85.027V83.5113C19.0969 83.5113 20.6125 82.9051 21.5219 81.6926C23.0375 79.8738 23.3406 76.3879 22.5828 72.5988C22.1281 70.1738 21.0672 70.0223 19.8547 70.0223C18.7938 70.0223 17.4297 70.3254 16.0656 70.6285C15.1563 70.7801 14.0953 71.0832 13.1859 71.2348C11.8219 71.3863 10.6094 71.3863 9.39688 71.2348C9.24532 71.2348 9.09375 71.2348 8.94219 71.2348Z" fill="#00A3FF"/>
<path d="M80.025 86.5425C77.1453 86.5425 74.7203 85.4815 73.2047 83.5112C71.0828 80.9347 70.4766 76.6909 71.6891 71.8409C72.4469 68.5065 74.2656 66.8394 77.4484 66.8394C78.8125 66.8394 80.3281 67.1425 81.9953 67.4456C82.9047 67.5972 83.8141 67.9003 84.7234 68.0519C85.7844 68.2034 86.6937 68.2034 87.3 68.0519C89.1187 67.7487 90.6344 68.2034 91.8469 69.4159C92.7562 70.3253 93.0594 71.5378 92.9078 72.7503C91.8469 81.5409 87.1484 86.5425 80.025 86.5425ZM77.2969 70.0222C76.0844 70.0222 75.0234 70.1737 74.5688 72.5987C73.6594 76.3878 74.1141 79.8737 75.6297 81.6925C76.5391 82.905 78.0547 83.5112 80.025 83.5112V85.0269V83.5112C87.6031 83.5112 89.2703 76.6909 89.725 72.7503C89.725 72.2956 89.5734 71.8409 89.4219 71.6894C88.9672 71.2347 88.3609 71.0831 87.7547 71.2347C86.6938 71.5378 85.3297 71.5378 83.9656 71.2347C83.0563 71.0831 81.9953 70.9315 81.0859 70.6284C79.5703 70.3253 78.3578 70.0222 77.2969 70.0222Z" fill="#00A3FF"/>
<path d="M48.5 48.652C39.8609 48.652 32.7375 41.5285 32.7375 32.8895C32.7375 31.8285 32.8891 30.7676 33.0406 29.7066C33.1922 28.9488 33.7984 28.4941 34.5563 28.4941H62.4438C63.2016 28.4941 63.8078 28.9488 63.9594 29.7066C64.1109 30.7676 64.2625 31.9801 64.2625 32.8895C64.2625 41.6801 57.1391 48.652 48.5 48.652ZM35.9203 31.5254C35.9203 31.9801 35.7688 32.4348 35.7688 32.8895C35.7688 39.8613 41.5281 45.6207 48.5 45.6207C55.4719 45.6207 61.2313 39.8613 61.2313 32.8895C61.2313 32.4348 61.2313 31.9801 61.0797 31.5254H35.9203Z" fill="#00A3FF"/>
<path d="M66.9906 31.5252H30.1609C29.1 31.5252 28.1906 31.0705 27.5844 30.1611C26.9781 29.4033 26.8266 28.3424 27.2813 27.433C27.7359 26.3721 28.1906 25.4627 29.1 24.7049C30.4641 23.3408 32.2828 22.583 34.4047 22.583H63.05C66.2328 22.583 68.9609 24.5533 70.0219 27.5846C70.325 28.4939 70.1734 29.5549 69.7188 30.3127C68.8094 31.0705 67.9 31.5252 66.9906 31.5252ZM34.1016 25.6143C32.8891 25.6143 31.8281 26.0689 31.0703 26.8268C30.6156 27.2814 30.3125 27.8877 30.0094 28.4939L66.8391 28.3424C66.2328 26.6752 64.5656 25.4627 62.7469 25.4627H34.1016V25.6143Z" fill="#00A3FF"/>
<path d="M64.4141 25.614H32.5859C31.6766 25.614 31.0703 25.0078 31.0703 24.0984V23.3406C31.0703 18.0359 33.4953 13.0343 37.7391 9.69995C38.3453 9.24527 39.4062 9.24527 39.8609 10.0031C40.3156 10.6093 40.1641 11.5187 39.5578 12.125C36.2234 14.7015 34.2531 18.4906 34.1016 22.7343H62.8984C62.7469 19.0968 61.2313 15.7625 58.6547 13.3375C58.3516 13.0343 57.8969 12.5796 57.4422 12.2765C56.8359 11.8218 56.6844 10.7609 57.1391 10.1546C57.5938 9.54839 58.6547 9.39683 59.2609 9.85152C59.8672 10.3062 60.3219 10.7609 60.7766 11.2156C64.1109 14.55 65.9297 18.9453 65.9297 23.4921V24.25C65.9297 25.0078 65.3234 25.614 64.4141 25.614Z" fill="#00A3FF"/>
<path d="M52.2891 16.2174C51.3797 16.2174 50.7734 15.6111 50.7734 14.7018V6.66894C50.7734 5.45644 49.7125 4.39551 48.5 4.39551C47.2875 4.39551 46.2266 5.45644 46.2266 6.66894V14.7018C46.2266 15.6111 45.6203 16.2174 44.7109 16.2174C43.8016 16.2174 43.1953 15.6111 43.1953 14.7018V6.66894C43.1953 3.78926 45.6203 1.36426 48.5 1.36426C51.3797 1.36426 53.8047 3.78926 53.8047 6.66894V14.7018C53.8047 15.4596 53.1984 16.2174 52.2891 16.2174Z" fill="#00A3FF"/>
</g>
<defs>
<clipPath id="clip0_80_149">
<rect width="97" height="97" fill="white"/>
</clipPath>
</defs>
</svg>
