<svg width="92" height="92" viewBox="0 0 92 92" fill="none" xmlns="http://www.w3.org/2000/svg">
<path d="M31.4124 49.4348C32.1569 49.4348 32.7601 48.8316 32.7601 48.0871C32.7601 47.3427 32.1569 46.7395 31.4124 46.7395H25.3289V42.6979C25.3289 41.9535 24.7257 41.3503 23.9813 41.3503C23.2368 41.3503 22.6336 41.9535 22.6336 42.6979V46.7395H17.8976V31.176C17.8976 30.1843 17.1273 29.4077 16.1438 29.4077H2.32479C1.21181 29.4077 0.339783 30.3714 0.339783 31.6015V89.8064C0.339783 91.0366 1.21181 92.0002 2.32479 92.0002H30.7751C31.8695 92.0002 32.7601 91.0161 32.7601 89.8064V75.8334C32.7601 75.089 32.1569 74.4857 31.4124 74.4857C30.668 74.4857 30.0648 75.089 30.0648 75.8334V89.3049H3.03527V32.103H15.2025V35.4945H10.6503C9.90581 35.4945 9.3026 36.0977 9.3026 36.8421C9.3026 37.5866 9.90581 38.1898 10.6503 38.1898H15.2023V43.0834H11.118C10.3735 43.0834 9.77032 43.6866 9.77032 44.431C9.77032 45.1755 10.3735 45.7787 11.118 45.7787H15.2023V57.6864C15.2023 58.4308 15.8055 59.0341 16.5499 59.0341H30.0648V69.5673C30.0648 70.3118 30.668 70.915 31.4124 70.915C32.1569 70.915 32.7601 70.3118 32.7601 69.5673V58.1069C32.7601 57.0147 31.8205 56.3387 30.9499 56.3387H25.3289V49.4348H31.4124ZM22.6336 56.3387H17.8976V49.4348H22.6334V56.3387H22.6336Z" fill="#00A3FF"/>
<path d="M77.368 62.3309V55.6762V43.4833C77.368 43.4828 77.368 43.482 77.368 43.4815V39.5956V24.6339C77.368 24.6334 77.368 24.6326 77.368 24.6321V23.5152V16.5557H79.9929C81.2177 16.5557 82.214 15.56 82.214 14.3362V14.2122H89.197C89.794 14.2122 90.3417 14.0189 90.7682 13.6979C90.8455 13.6462 90.9186 13.5858 90.9862 13.5163C91.0015 13.5006 91.0146 13.4837 91.029 13.4676C91.4198 13.0728 91.6598 12.5531 91.6598 11.9826V4.57305C91.6598 3.34345 90.5551 2.3433 89.197 2.3433H82.2142V2.2195C82.2142 0.995649 81.2178 0 79.9931 0H62.854C61.6292 0 60.6327 0.995649 60.6327 2.2195V2.3433H58.0847H43.0909C43.0892 2.3433 43.0878 2.3433 43.0862 2.3433H41.9682H22.6758C21.3151 2.3433 20.208 3.34345 20.208 4.57305V11.9825C20.208 13.2119 21.3151 14.212 22.6758 14.212H29.0883V18.8578L24.1029 24.1566H22.8713C21.6919 24.1566 20.7323 25.1155 20.7323 26.294V32.596C20.7323 33.7773 21.6919 34.7384 22.8713 34.7384H37.996C39.1783 34.7384 40.1402 33.7773 40.1402 32.596V26.294C40.1402 25.1155 39.1783 24.1566 37.996 24.1566H36.7694L31.7838 18.8578V14.2122H41.9685H58.0849H60.6328V14.3362C60.6328 15.56 61.6294 16.5557 62.8541 16.5557H65.4788V23.5148V39.5954V55.676V70.4088H61.2555C59.3874 70.4088 57.8676 71.9266 57.8676 73.7923V82.582H56.389C53.7869 82.582 51.6698 84.6957 51.6698 87.2936V89.7498C51.6698 90.9905 52.6826 91.9998 53.9273 91.9998H89.3464C90.5882 91.9998 91.5984 90.9905 91.5984 89.7498V87.2936C91.5984 84.6957 89.4837 82.582 86.8847 82.582H85.406V73.7923C85.406 71.9266 83.8837 70.4088 82.0128 70.4088H77.368V62.3327C77.368 62.3322 77.368 62.3316 77.368 62.3309ZM88.9647 5.03916V9.67509L84.1895 5.03898L88.9647 5.03916ZM82.2142 6.87772L86.9925 11.5169H82.2142V6.87772ZM22.9033 11.5162V5.03862H23.6505L30.3205 11.5164L22.9033 11.5162ZM37.4447 26.8521V32.0433H23.4275V26.8521H37.4447ZM33.0684 24.1568H27.8036L30.436 21.3589L33.0684 24.1568ZM27.5191 5.03862H39.7666L33.6429 10.9859L27.5191 5.03862ZM41.9683 11.5169L36.9651 11.5167L43.0887 5.56959L49.2124 11.5169H41.9683ZM46.4106 5.03862H58.0847H58.6583L52.5343 10.9859L46.4106 5.03862ZM58.0847 11.5169H55.8564L60.6327 6.87844V11.5169H58.0847ZM82.0126 73.1042C82.3975 73.1042 82.7105 73.4129 82.7105 73.7924V82.5822H74.8641C74.1196 82.5822 73.5164 83.1854 73.5164 83.9299C73.5164 84.6743 74.1196 85.2775 74.8641 85.2775H86.8845C87.9975 85.2775 88.9029 86.1819 88.9029 87.2938V89.3047H54.3652V87.2938C54.3652 86.1819 55.2731 85.2775 56.389 85.2775H68.3375C69.0819 85.2775 69.6851 84.6743 69.6851 83.9299C69.6851 83.1854 69.0819 82.5822 68.3375 82.5822H60.5629V73.7924C60.5629 73.4194 60.8803 73.1042 61.2555 73.1042H66.8263H76.0204H82.0126ZM74.1378 24.6328L68.1741 30.7461V23.5148V18.5193L74.1378 24.6328ZM70.0237 16.5557H74.6727V21.3215L70.0237 16.5557ZM74.6727 27.9441V39.5954V40.1708L68.7089 34.0573L74.6727 27.9441ZM74.1378 43.4822L68.1741 49.5957V39.5954V37.3687L74.1378 43.4822ZM74.6727 46.7937V55.6762V59.0205L68.7091 52.907L74.6727 46.7937ZM74.1378 62.332L68.1741 68.4453V56.2185L74.1378 62.332ZM74.6727 65.6433V70.4089H70.0237L74.6727 65.6433ZM76.0204 13.8604H66.8441C66.8432 13.8604 66.8421 13.8604 66.841 13.8604H66.8263H63.3278V2.69531H79.5187V13.8604H76.0204Z" fill="#00A3FF"/>
<path d="M26.8347 65.0748C26.8347 63.964 25.9327 63.0605 24.8242 63.0605H8.27605C7.1645 63.0605 6.26031 63.964 6.26031 65.0748V70.5718C6.26031 71.6827 7.1645 72.5861 8.27605 72.5861H24.8242C25.9329 72.5861 26.8347 71.6827 26.8347 70.5718V65.0748ZM15.2023 69.8908H8.95563V65.7559H15.2025V69.8908H15.2023ZM24.1394 69.8908H17.8976V65.7559H24.1392V69.8908H24.1394Z" fill="#00A3FF"/>
<path d="M24.824 76.6138H8.27605C7.1645 76.6138 6.26031 77.5172 6.26031 78.6281V84.1251C6.26031 85.2357 7.1645 86.1392 8.27605 86.1392H24.8242C25.9329 86.1392 26.8347 85.2357 26.8347 84.1251V78.6281C26.8347 77.5172 25.9327 76.6138 24.824 76.6138ZM15.2023 83.4439H8.95563V79.3091H15.2025V83.4439H15.2023ZM24.1394 83.4439H17.8976V79.3091H24.1392V83.4439H24.1394Z" fill="#00A3FF"/>
</svg>
