<svg width="105" height="105" viewBox="0 0 105 105" fill="none" xmlns="http://www.w3.org/2000/svg">
<path d="M8.20312 80.3906H18.0469V70.5469H8.20312V80.3906ZM11.4844 73.8281H14.7656V77.1094H11.4844V73.8281Z" fill="#00A3FF"/>
<path d="M8.20312 67.2656H18.0469V57.4219H8.20312V67.2656ZM11.4844 60.7031H14.7656V63.9844H11.4844V60.7031Z" fill="#00A3FF"/>
<path d="M21.3281 80.3906H31.1719V70.5469H21.3281V80.3906ZM24.6094 73.8281H27.8906V77.1094H24.6094V73.8281Z" fill="#00A3FF"/>
<path d="M21.3281 67.2656H31.1719V57.4219H21.3281V67.2656ZM24.6094 60.7031H27.8906V63.9844H24.6094V60.7031Z" fill="#00A3FF"/>
<path d="M34.4531 80.3906H44.2969V70.5469H34.4531V80.3906ZM37.7344 73.8281H41.0156V77.1094H37.7344V73.8281Z" fill="#00A3FF"/>
<path d="M34.4531 67.2656H44.2969V57.4219H34.4531V67.2656ZM37.7344 60.7031H41.0156V63.9844H37.7344V60.7031Z" fill="#00A3FF"/>
<path d="M86.5085 73.8659L85.6702 71.3524C88.4773 68.6634 90.2344 64.8884 90.2344 60.7031V59.0625H96.7969V53.4614L93.4779 50.1424C93.1941 44.2772 89.4764 39.6982 83.6719 37.5129V14.7656H77.1094V8.20312H70.5469V1.64062H47.5781V8.20312H41.0156V14.7656H34.4531V37.7344H14.7656V44.2969H8.20312V50.8594H1.64062V103.359H49.2188H50.8594H103.359V90.3394C103.359 81.4882 95.8683 74.2629 86.5085 73.8659ZM80.3906 90.2344H83.6719V93.5156H80.3906V90.2344ZM84.1116 78.2414L84.1739 81.818L79.8312 81.0945L84.1116 78.2414ZM86.9531 90.2344H90.2344V93.5156H86.9531V90.2344ZM90.2344 77.7919V86.9531H85.6751C86.7809 85.5734 87.4568 83.8688 87.4568 82.0034L87.3731 77.198C88.3624 77.3046 89.3173 77.5113 90.2344 77.7919ZM83.3602 74.7994L75.4688 80.0592L67.5773 74.7994L68.0318 73.4377C70.2188 74.7206 72.7552 75.4688 75.4688 75.4688C78.1823 75.4688 80.7188 74.7206 82.9057 73.4377L83.3602 74.7994ZM44.2969 45.9375V44.2969V24.6094H47.5781V50.8594H44.2969V45.9375ZM50.8594 65.625H61.5645C62.3438 67.8185 63.6202 69.7725 65.2673 71.3524L64.429 73.8659C58.8345 74.1037 53.9159 76.7747 50.8594 80.786V65.625ZM60.7031 41.9475C58.7623 44.1902 57.6138 46.9777 57.4596 50.1408L57.4219 50.1802V24.6094H60.7031V41.9475ZM57.4219 59.0625H60.7031V60.7031C60.7031 61.2577 60.7392 61.804 60.7999 62.3438H57.4219V59.0625ZM70.5469 93.5156H67.2656V90.2344H70.5469V93.5156ZM63.9844 93.5156H60.7031V90.2344H63.9844V93.5156ZM60.7031 96.7969H70.5469V100.078H60.7031V96.7969ZM60.7031 86.9531V77.7919C61.6202 77.5097 62.5751 77.303 63.5627 77.198L63.4791 82.0312C63.4791 83.8835 64.155 85.5783 65.2575 86.9531H60.7031ZM66.8259 78.2414L71.1063 81.0945L66.7652 81.818L66.8259 78.2414ZM86.9531 60.7031C86.9531 67.0359 81.8016 72.1875 75.4688 72.1875C69.1359 72.1875 63.9844 67.0359 63.9844 60.7031V59.0625H86.9531V60.7031ZM93.5156 55.7812H57.4219V54.8198L59.7417 52.5H91.1958L93.5156 54.8198V55.7812ZM90.0949 49.2188H60.8426C61.7482 43.3486 67.5002 39.375 75.4688 39.375C83.4373 39.375 89.1893 43.3486 90.0949 49.2188ZM73.8281 36.1528C72.6879 36.2217 71.5969 36.371 70.5469 36.581V24.6094H73.8281V36.1528ZM50.8594 4.92188H67.2656V8.20312H50.8594V4.92188ZM44.2969 11.4844H73.8281V14.7656H44.2969V11.4844ZM37.7344 18.0469H80.3906V36.581C79.3406 36.371 78.2496 36.2234 77.1094 36.1528V21.3281H67.2656V37.5112C66.0827 37.9575 64.9835 38.4956 63.9844 39.1305V21.3281H54.1406V62.3438H50.8594V52.5V50.8594V21.3281H41.0156V44.2969H37.7344V39.375V37.7344V18.0469ZM18.0469 41.0156H34.4531V44.2969H18.0469V41.0156ZM11.4844 47.5781H41.0156V50.8594H11.4844V47.5781ZM14.7656 100.078H11.4844V88.5938H14.7656V100.078ZM27.8906 100.078H24.6094V88.5938H27.8906V100.078ZM41.0156 100.078H37.7344V88.5938H41.0156V100.078ZM47.5781 100.078H44.2969V85.3125H34.4531V100.078H31.1719V85.3125H21.3281V100.078H18.0469V85.3125H8.20312V100.078H4.92188V54.1406H47.5781V100.078ZM50.8594 90.3394C50.8594 85.6931 53.4762 81.6014 57.4219 79.2405V100.078H50.8594V90.3394ZM77.1094 100.078H73.8281V86.9531H72.1875C70.4091 86.9531 68.8406 86.1623 67.8497 84.9647L75.4688 83.6948L83.0829 84.963C82.0919 86.164 80.5268 86.9531 78.75 86.9531H77.1094V100.078ZM80.3906 96.7969H90.2344V100.078H80.3906V96.7969ZM100.078 100.078H93.5156V79.2405C97.4613 81.6014 100.078 85.6948 100.078 90.3394V100.078Z" fill="#00A3FF"/>
</svg>
