<svg width="109" height="109" viewBox="0 0 109 109" fill="none" xmlns="http://www.w3.org/2000/svg">
<path d="M109 72.6179V26.361C109 21.8343 105.317 18.1515 100.79 18.1515C96.8092 18.1515 93.4811 20.9998 92.7364 24.7654H16.2661C15.5314 21.0175 11.961 18.1509 8.20906 18.1509C3.68258 18.1509 0 21.8345 0 26.3621V72.6509C0 77.1774 3.68258 80.8599 8.20906 80.8599H100.791C105.317 80.8599 109 77.1774 109 72.6509C109 72.6398 109 72.629 109 72.6179ZM95.774 26.361C95.774 23.5951 98.0242 21.3449 100.79 21.3449C103.556 21.3449 105.806 23.5951 105.806 26.361V66.1564C102.885 63.8953 98.6948 63.8953 95.7737 66.1564V26.361H95.774ZM100.791 77.6666H8.20906C5.4434 77.6666 3.19336 75.4165 3.19336 72.6509C3.48097 69.5948 5.15302 67.9228 8.20906 67.6352C10.976 67.6352 13.2269 69.8852 13.2269 72.6509C13.2269 73.5327 13.9418 74.2476 14.8236 74.2476C15.7054 74.2476 16.4203 73.5327 16.4203 72.6509V51.7621C16.4203 50.8803 15.7054 50.1654 14.8236 50.1654C13.9418 50.1654 13.2269 50.8803 13.2269 51.7621V66.1571C10.3099 63.8992 6.11188 63.8896 3.19336 66.1518V26.3621C3.19336 23.5951 5.4434 21.3442 8.20906 21.3442C11.2674 21.6312 12.9399 23.3039 13.2269 26.3621V44.8027C13.2269 45.6844 13.9418 46.3993 14.8236 46.3993C15.7054 46.3993 16.4203 45.6844 16.4203 44.8027V27.9587H92.5806V72.6511C92.5806 73.5329 93.2955 74.2478 94.1773 74.2478C95.0591 74.2478 95.774 73.5329 95.774 72.6511C95.774 69.8852 98.0242 67.635 100.79 67.635C103.556 67.635 105.806 69.8852 105.806 72.6511C105.806 72.6583 105.806 72.6656 105.806 72.6728C105.795 75.4285 103.549 77.6666 100.791 77.6666Z" fill="#00A3FF"/>
<path d="M22.9752 21.3464H47.7152C48.597 21.3464 49.3119 20.6316 49.3119 19.7498C49.3119 18.868 48.597 18.1531 47.7152 18.1531H27.9919V11.4939H71.0886V18.1531H54.6724C53.7906 18.1531 53.0758 18.868 53.0758 19.7498C53.0758 20.6316 53.7906 21.3464 54.6724 21.3464C54.6724 21.3464 72.7773 21.3437 72.7858 21.3432C72.7888 21.343 73.1273 21.2932 73.2787 21.2325L86.1996 16.4202H89.2176C90.0993 16.4202 90.8142 15.7053 90.8142 14.8235C90.8142 13.9417 90.0993 13.2268 89.2176 13.2268H86.1996L73.2814 8.41547C73.0973 8.34138 72.8961 8.30029 72.6853 8.30029C72.6826 8.30029 72.6798 8.30029 72.677 8.30029H22.9752C20.3338 8.30029 18.1851 10.449 18.1851 13.0903V16.5562C18.1851 19.1977 20.3338 21.3464 22.9752 21.3464ZM74.282 17.4512V12.196L81.3372 14.8235L74.282 17.4512ZM21.3785 13.0905C21.3785 12.21 22.0946 11.4939 22.9752 11.4939H24.7986V18.1531H22.9752C22.0946 18.1531 21.3785 17.4369 21.3785 16.5564V13.0905Z" fill="#00A3FF"/>
<path d="M94.1764 84.2811C67.7254 84.2785 41.2746 84.2789 14.8235 84.2811C13.9418 84.2811 13.2269 84.9959 13.2269 85.8777V99.1025C13.2269 99.9843 13.9418 100.699 14.8235 100.699H64.2461C65.1279 100.699 65.8428 99.9843 65.8428 99.1025C65.8428 98.2207 65.1279 97.5058 64.2461 97.5058H16.4202V87.4744H19.839V89.1831C19.839 90.0649 20.5539 90.7797 21.4357 90.7797C22.3175 90.7797 23.0324 90.0649 23.0324 89.1831V87.4744H26.4518V92.4897C26.4518 93.3715 27.1667 94.0864 28.0485 94.0864C28.9303 94.0864 29.6452 93.3715 29.6452 92.4897V87.4744H33.0647V89.1831C33.0647 90.0649 33.7795 90.7797 34.6613 90.7797C35.5431 90.7797 36.258 90.0649 36.258 89.1831V87.4744H39.6775V92.4897C39.6775 93.3715 40.3924 94.0864 41.2741 94.0864C42.1559 94.0864 42.8708 93.3715 42.8708 92.4897V87.4744H46.2903V89.1831C46.2903 90.0649 47.0052 90.7797 47.887 90.7797C48.7687 90.7797 49.4836 90.0649 49.4836 89.1831V87.4744H52.9033V92.4897C52.9033 93.3715 53.6182 94.0864 54.5 94.0864C55.3818 94.0864 56.0967 93.3715 56.0967 92.4897V87.4744H59.5161V89.1831C59.5161 90.0649 60.231 90.7797 61.1128 90.7797C61.9946 90.7797 62.7095 90.0649 62.7095 89.1831V87.4744H66.1289V92.4897C66.1289 93.3715 66.8438 94.0864 67.7256 94.0864C68.6074 94.0864 69.3223 93.3715 69.3223 92.4897V87.4744H72.7417V89.1831C72.7417 90.0649 73.4566 90.7797 74.3384 90.7797C75.2202 90.7797 75.9351 90.0649 75.9351 89.1831V87.4744H79.3545V92.4897C79.3545 93.3715 80.0694 94.0864 80.9512 94.0864C81.833 94.0864 82.5479 93.3715 82.5479 92.4897V87.4744H85.9673V89.1831C85.9673 90.0649 86.6822 90.7797 87.564 90.7797C88.4458 90.7797 89.1607 90.0649 89.1607 89.1831V87.4744H92.5795V97.5058H71.2053C70.3235 97.5058 69.6086 98.2207 69.6086 99.1025C69.6086 99.9843 70.3235 100.699 71.2053 100.699H94.1762C95.058 100.699 95.7729 99.9843 95.7729 99.1025V85.8777C95.7731 84.9959 95.0582 84.2811 94.1764 84.2811Z" fill="#00A3FF"/>
<path d="M59.4597 67.7479H57.75V50.3924C58.4547 51.1737 59.8595 51.7689 60.7037 50.72C61.2565 50.033 61.1477 49.028 60.461 48.4751L43.9362 35.0425C43.3488 34.5639 42.5062 34.5639 41.9188 35.0425L25.3942 48.4749C24.7072 49.0277 24.5987 50.0328 25.1516 50.7198C25.9959 51.7685 27.4003 51.1737 28.1052 50.3922V67.7476H26.3955C25.5137 67.7476 24.7988 68.4625 24.7988 69.3443C24.7988 70.2261 25.5137 70.941 26.3955 70.941H59.4599C60.3417 70.941 61.0566 70.2261 61.0566 69.3443C61.0566 68.4625 60.3415 67.7479 59.4597 67.7479ZM31.2986 47.8162L42.9277 38.3398L54.5569 47.8162V67.7479H49.4841V57.7154H49.5405C50.4223 57.7154 51.1372 57.0005 51.1372 56.1187C51.1372 55.2369 50.4223 54.522 49.5405 54.522H36.3147C35.4329 54.522 34.718 55.2369 34.718 56.1187C34.718 57.0005 35.4329 57.7154 36.3147 57.7154H36.3713V67.7479H31.2986V47.8162ZM39.5645 67.7479V57.7154H46.2905V67.7479H39.5645Z" fill="#00A3FF"/>
<path d="M82.6047 61.1353H69.3789C68.4971 61.1353 67.7822 61.8501 67.7822 62.7319V69.3447C67.7822 70.2265 68.4971 70.9414 69.3789 70.9414H82.6047C83.4865 70.9414 84.2014 70.2265 84.2014 69.3447V62.7319C84.2014 61.8501 83.4865 61.1353 82.6047 61.1353ZM81.0081 67.7481H70.9756V64.3286H81.0081V67.7481Z" fill="#00A3FF"/>
<path d="M82.6047 54.5225H69.3789C68.4971 54.5225 67.7822 55.2373 67.7822 56.1191C67.7822 57.0009 68.4971 57.7158 69.3789 57.7158H82.6047C83.4865 57.7158 84.2014 57.0009 84.2014 56.1191C84.2014 55.2373 83.4865 54.5225 82.6047 54.5225Z" fill="#00A3FF"/>
<path d="M82.6048 47.9097H75.9919C75.1102 47.9097 74.3953 48.6246 74.3953 49.5063C74.3953 50.3881 75.1102 51.103 75.9919 51.103H82.6048C83.4865 51.103 84.2014 50.3881 84.2014 49.5063C84.2014 48.6246 83.4865 47.9097 82.6048 47.9097Z" fill="#00A3FF"/>
</svg>
