<svg width="25" height="25" viewBox="0 0 25 25" fill="none" xmlns="http://www.w3.org/2000/svg">
<g clip-path="url(#clip0_2_494)">
<path d="M25.0001 24.0196C24.9674 24.085 24.9347 24.1176 24.9347 24.183C24.6079 25 23.6275 25.2614 22.9739 24.6732C22.9086 24.6078 22.8432 24.5425 22.7779 24.4771C19.4118 21.1438 16.0785 17.8105 12.7125 14.4444C12.6471 14.3791 12.6145 14.281 12.5491 14.183C12.4184 14.3137 12.353 14.3791 12.2877 14.4444C8.92165 17.8105 5.55563 21.1765 2.15694 24.5752C1.69942 25.0327 1.14387 25.1307 0.620993 24.8693C-0.0326014 24.5098 -0.22868 23.6601 0.228837 23.0392C0.294196 22.9412 0.392235 22.8431 0.490275 22.7778C3.85629 19.4444 7.18962 16.0784 10.523 12.7451C10.5883 12.6797 10.6864 12.6144 10.7844 12.5163C10.6864 12.4183 10.621 12.3529 10.5556 12.2876C7.18962 8.92157 3.82361 5.55556 0.424915 2.15686C0.0327581 1.76471 -0.0979608 1.33987 0.0654379 0.784314C0.228837 0.359477 0.588314 0.130719 0.980471 0C1.14387 0 1.30727 0 1.47067 0C1.83014 0.0980392 2.09158 0.359477 2.35302 0.620915C5.65367 3.92157 8.98701 7.2549 12.2877 10.5556C12.353 10.6209 12.3857 10.719 12.4184 10.817C12.4511 10.817 12.4837 10.7843 12.5491 10.7843C12.6145 10.6863 12.6798 10.6209 12.7452 10.5229C16.0458 7.22222 19.3465 3.92157 22.6471 0.620915C22.9086 0.359477 23.17 0.0980392 23.5295 0C23.6929 0 23.8563 0 24.0197 0C24.5099 0.163399 24.8367 0.490196 25.0001 0.980392C25.0001 1.14379 25.0001 1.30719 25.0001 1.47059C24.8694 1.83007 24.6406 2.0915 24.3792 2.38562C21.0458 5.68628 17.7452 8.98693 14.4445 12.2876C14.3792 12.3529 14.3138 12.4183 14.2158 12.5163C14.3138 12.5817 14.3792 12.6471 14.4445 12.7124C17.7452 16.0131 21.0458 19.3137 24.3465 22.6144C24.6079 22.8758 24.8694 23.1699 25.0001 23.5294C25.0001 23.6928 25.0001 23.8562 25.0001 24.0196Z" fill="#00A3FF"/>
</g>
<defs>
<clipPath id="clip0_2_494">
<rect width="25" height="25" fill="white"/>
</clipPath>
</defs>
</svg>
