<svg width="480" height="183" viewBox="0 0 480 183" fill="none" xmlns="http://www.w3.org/2000/svg">
<g clip-path="url(#clip0_84_2)">
<path fill-rule="evenodd" clip-rule="evenodd" d="M249.012 89.3336L252.327 94.4521L247.21 111.997L239.773 117.957L195.407 117.899L212.3 59.9856L256.205 60.0436L260.428 66.6846L255.311 84.2151L249.012 89.3336ZM236.429 104.486L238.966 95.8151L214.938 95.7861L212.415 104.457L236.429 104.486ZM221.438 73.4851L218.858 82.3156L242.886 82.3446L245.452 73.5141L221.438 73.4851Z" fill="#00A3FF"/>
<path d="M299.043 79.1255L300.657 73.572L276.644 73.543L274.078 82.301L304.924 82.3445L309.19 88.884L302.43 112.07L294.978 118.029L256.781 117.971L252.5 111.519L256.147 99.0195L269.206 99.0485L267.606 104.515L291.634 104.544L294.156 95.873L263.397 95.8295L258.468 91.03L265.718 66.1915L273.199 60.0725L311.424 60.116L315.633 66.757L312.03 79.1545L299.043 79.1255Z" fill="#00A3FF"/>
<path d="M330.494 62.3345L322.941 68.4535H328.548L327.899 70.4835H319.51L320.159 68.4535L327.697 62.3345H322.105L322.753 60.29H331.142L330.494 62.3345Z" fill="#4B4B4B"/>
<path fill-rule="evenodd" clip-rule="evenodd" d="M328.836 70.4835L331.099 63.364L334.861 60.29H340.468L337.211 70.4835H335.366L336.331 67.4385H331.676L330.696 70.4835H328.836ZM336.994 65.4085L337.96 62.3345H335.164L332.656 64.379L332.324 65.4085H336.994Z" fill="#4B4B4B"/>
<path d="M346.248 66.4235L348.194 60.29H350.053L347.776 67.4385L344.014 70.4835H341.218L339.387 67.4385L341.665 60.29H343.538L341.578 66.4235L342.803 68.4535H343.726L346.248 66.4235Z" fill="#4B4B4B"/>
<path fill-rule="evenodd" clip-rule="evenodd" d="M348.929 70.4835L348.338 69.483L350.933 61.334L352.172 60.29H358.716L359.322 61.334L356.713 69.483L355.473 70.4835H348.929ZM355.185 68.4535L357.145 62.3345H352.475L350.529 68.4535H355.185Z" fill="#4B4B4B"/>
<path fill-rule="evenodd" clip-rule="evenodd" d="M366.442 69.483L365.202 70.4835H357.736L360.979 60.29H366.572L368.388 63.3495L366.442 69.483ZM366.226 64.379L365.001 62.3345H362.204L360.258 68.4535H364.928L366.226 64.379Z" fill="#4B4B4B"/>
<path fill-rule="evenodd" clip-rule="evenodd" d="M315.619 83.548L318.862 73.3545H326.328L326.919 74.3985L325.939 77.4435L324.699 78.473L325.29 79.488L324.325 82.5475L323.085 83.548H315.619ZM322.797 81.518L323.431 79.488H318.775L318.127 81.518H322.797ZM324.094 77.4435L324.757 75.399H320.087L319.438 77.4435H324.094Z" fill="#4B4B4B"/>
<path d="M325.334 83.548L328.591 73.3545H336.519L335.87 75.399H329.802L329.153 77.4435H334.746L334.097 79.488H328.505L327.856 81.518H333.924L333.276 83.548H325.334Z" fill="#4B4B4B"/>
<path d="M335.394 83.548L334.789 82.5475L335.438 80.503H337.311L336.994 81.518H341.65L342.299 79.488H336.692L336 78.763L337.398 74.3985L338.638 73.3545H345.181L345.772 74.3985L345.138 76.414H343.279L343.596 75.399H338.94L338.292 77.4435H343.884L344.49 78.4585L343.178 82.5475L341.938 83.548H335.394Z" fill="#4B4B4B"/>
<path d="M347.07 83.548L349.664 75.399H346.392L347.041 73.3545H355.43L354.781 75.399H351.538L348.944 83.548H347.07Z" fill="#4B4B4B"/>
<path d="M312.376 96.6124L311.77 95.6119L312.419 93.5674H314.293L313.975 94.5824H318.631L319.28 92.5524H313.673L312.981 91.8274L314.365 87.4629L315.619 86.4189H322.163L322.754 87.4629L322.119 89.4784H320.26L320.577 88.4634H315.921L315.273 90.5079H320.865L321.471 91.5229L320.159 95.6119L318.919 96.6124H312.376Z" fill="#4B4B4B"/>
<path d="M324.181 96.6124L325.406 92.7699L322.955 90.2179L324.152 86.4189H326.025L325.089 89.3624L326.861 91.0879L329.759 89.3624L330.696 86.4189H332.541L331.33 90.2179L327.265 92.7699L326.04 96.6124H324.181Z" fill="#4B4B4B"/>
<path d="M331.287 96.6124L330.696 95.6119L331.344 93.5674H333.204L332.886 94.5824H337.542L338.191 92.5524H332.584L331.892 91.8274L333.29 87.4629L334.53 86.4189H341.074L341.679 87.4629L341.03 89.4784H339.171L339.502 88.4634H334.832L334.184 90.5079H339.776L340.382 91.5229L339.07 95.6119L337.83 96.6124H331.287Z" fill="#4B4B4B"/>
<path d="M342.962 96.6124L345.556 88.4634H342.284L342.933 86.4189H351.322L350.673 88.4634H347.43L344.836 96.6124H342.962Z" fill="#4B4B4B"/>
<path d="M349.016 96.6124L352.259 86.4189H360.201L359.552 88.4634H353.484L352.835 90.5224H358.428L357.779 92.5524H352.172L351.538 94.5824H357.592L356.943 96.6124H349.016Z" fill="#4B4B4B"/>
<path d="M358.154 96.6124L361.397 86.4189H363.271L364.957 91.3634L369.844 86.4189H371.645L368.388 96.6124H366.529L368.719 89.7394L365.029 93.6544H363.458L362.204 89.7394L360.028 96.6124H358.154Z" fill="#4B4B4B"/>
<path d="M370.651 96.6124L370.045 95.6119L370.708 93.5674H372.568L372.251 94.5824H376.906L377.555 92.5524H371.948L371.256 91.8274L372.654 87.4629L373.894 86.4189H380.438L381.029 87.4629L380.395 89.4784H378.535L378.852 88.4634H374.197L373.548 90.5079H379.141L379.746 91.5229L378.434 95.6119L377.195 96.6124H370.651Z" fill="#4B4B4B"/>
<path d="M163.999 104.385L182.507 104.443L184.092 99.0196L197.151 99.0486L193.216 112.012L185.764 117.971L140 117.826L143.791 104.849L182.953 73.4271L164.331 73.3981L162.875 78.3861H149.816L155.135 59.9131L206.952 59.9856L203.176 72.9631L163.999 104.385Z" fill="#00A3FF"/>
</g>
<path d="M-89 182.5H430.5L479.5 -2" stroke="black" stroke-opacity="0.22"/>
<defs>
<clipPath id="clip0_84_2">
<rect width="241" height="58" fill="white" transform="translate(140 60)"/>
</clipPath>
</defs>
</svg>
