<svg width="30" height="20" viewBox="0 0 30 20" fill="none" xmlns="http://www.w3.org/2000/svg">
<path d="M0.937479 1.78567H29.0626C29.5801 1.78567 30 1.38564 30 0.892838C30 0.399959 29.58 0 29.0626 0H0.937479C0.419956 0 0 0.400033 0 0.892838C0 1.38564 0.420034 1.78567 0.937479 1.78567Z" fill="#00A3FF"/>
<path d="M29.0626 9.10693H0.937479C0.419956 9.10693 0 9.50697 0 9.99977C0 10.4926 0.420034 10.8926 0.937479 10.8926H29.0626C29.5801 10.8926 30 10.4926 30 9.99977C30 9.50697 29.5801 9.10693 29.0626 9.10693Z" fill="#00A3FF"/>
<path d="M29.0625 18.2144H10.3125C9.79496 18.2144 9.375 18.6144 9.375 19.1072C9.375 19.6001 9.79503 20 10.3125 20H29.0625C29.5801 20 30 19.6 30 19.1072C30.0001 18.6143 29.5801 18.2144 29.0625 18.2144Z" fill="#00A3FF"/>
</svg>
