<svg width="11" height="40" viewBox="0 0 11 40" fill="none" xmlns="http://www.w3.org/2000/svg">
<path d="M3.84 35.9366C3.84 34.9286 4.12467 34.1166 4.694 33.5006C5.254 32.8846 5.996 32.5766 6.92 32.5766C7.844 32.5766 8.59067 32.8846 9.16 33.5006C9.72 34.1166 10 34.9286 10 35.9366L10 39.7166L0.199999 39.7166L0.199999 33.4166L2.356 33.4166L2.356 37.4766L3.84 37.4766L3.84 35.9366ZM7.9 35.9366C7.9 35.19 7.57333 34.8166 6.92 34.8166C6.26667 34.8166 5.94 35.19 5.94 35.9366L5.94 37.4766L7.9 37.4766L7.9 35.9366ZM9.132 25.6052C9.84133 26.3239 10.196 27.2012 10.196 28.2372C10.196 29.2732 9.84133 30.1505 9.132 30.8692C8.41333 31.5879 7.536 31.9472 6.5 31.9472C5.464 31.9472 4.59133 31.5879 3.882 30.8692C3.16333 30.1505 2.804 29.2732 2.804 28.2372C2.804 27.2012 3.16333 26.3239 3.882 25.6052C4.59133 24.8865 5.464 24.5272 6.5 24.5272C7.536 24.5272 8.41333 24.8865 9.132 25.6052ZM7.69 29.3852C7.998 29.0772 8.152 28.6945 8.152 28.2372C8.152 27.7799 7.998 27.3972 7.69 27.0892C7.382 26.7812 6.98533 26.6272 6.5 26.6272C6.01467 26.6272 5.618 26.7812 5.31 27.0892C5.002 27.3972 4.848 27.7799 4.848 28.2372C4.848 28.6945 5.002 29.0772 5.31 29.3852C5.618 29.6932 6.01467 29.8472 6.5 29.8472C6.98533 29.8472 7.382 29.6932 7.69 29.3852ZM3 17.3861L10 17.3861L10 19.4861L5.016 19.4861L5.016 20.9981L7.102 20.9981C8.166 20.9981 8.94533 21.2641 9.44 21.7961C9.93467 22.3188 10.1213 23.0888 10 24.1061L8.04 24.1061C8.13333 23.7794 8.08667 23.5321 7.9 23.3641C7.71333 23.1868 7.40067 23.0981 6.962 23.0981L3 23.0981L3 17.3861ZM7.34 13.9712C7.99333 13.7285 8.32 13.1685 8.32 12.2912C8.32 11.7219 8.14267 11.2739 7.788 10.9472L8.754 9.26719C9.71533 9.95785 10.196 10.9752 10.196 12.3192C10.196 13.4952 9.846 14.4379 9.146 15.1472C8.446 15.8472 7.564 16.1972 6.5 16.1972C5.44533 16.1972 4.568 15.8519 3.868 15.1612C3.15867 14.4612 2.804 13.5652 2.804 12.4732C2.804 11.4559 3.15867 10.6112 3.868 9.93919C4.568 9.25785 5.44533 8.91719 6.5 8.91719C6.79866 8.91719 7.07866 8.94519 7.34 9.00119L7.34 13.9712ZM5.772 14.0132L5.772 11.0032C5.03467 11.2085 4.666 11.7032 4.666 12.4872C4.666 13.2992 5.03467 13.8079 5.772 14.0132ZM7.34 5.91845C7.99333 5.67579 8.32 5.11579 8.32 4.23845C8.32 3.66912 8.14266 3.22112 7.788 2.89445L8.754 1.21445C9.71533 1.90512 10.196 2.92245 10.196 4.26645C10.196 5.44245 9.846 6.38512 9.146 7.09445C8.446 7.79445 7.564 8.14445 6.5 8.14445C5.44533 8.14445 4.568 7.79912 3.868 7.10845C3.15866 6.40845 2.804 5.51245 2.804 4.42045C2.804 3.40312 3.15866 2.55845 3.868 1.88645C4.568 1.20512 5.44533 0.864453 6.5 0.864452C6.79866 0.864452 7.07866 0.892452 7.34 0.948452L7.34 5.91845ZM5.772 5.96045L5.772 2.95045C5.03466 3.15579 4.666 3.65045 4.666 4.43445C4.666 5.24645 5.03466 5.75512 5.772 5.96045Z" fill="black"/>
</svg>
